<svg version="1.0" xmlns="http://www.w3.org/2000/svg"
 width="150.000000pt" height="150.000000pt" viewBox="0 0 150.000000 150.000000"
 preserveAspectRatio="xMidYMid meet">
<g transform="translate(0.000000,150.000000) scale(0.050000,-0.050000)"
fill="#9d9d9d" stroke="none">
<path d="M580 1890 l0 -130 920 0 920 0 0 130 0 130 -920 0 -920 0 0 -130z"/>
<path d="M580 1490 l0 -130 920 0 920 0 0 130 0 130 -920 0 -920 0 0 -130z"/>
<path d="M580 1090 l0 -130 920 0 920 0 0 130 0 130 -920 0 -920 0 0 -130z"/>
</g>
</svg>
